<svg width="537" height="530" viewBox="0 0 537 530" fill="none" xmlns="http://www.w3.org/2000/svg">
<path fill-rule="evenodd" clip-rule="evenodd" d="M311.184 2.76712C304.08 6.20412 303.714 8.09612 307.921 19.6081C316.266 42.4391 320.163 62.2541 321.579 89.0541C322.346 103.561 322.895 104.515 331.017 105.477C338.07 106.313 339.719 104.751 340.941 96.0751C344.103 73.6301 338.923 37.9071 328.78 12.2221C323.478 -1.20589 321.544 -2.24488 311.184 2.76712ZM358.03 5.72711C346.689 15.2691 357.908 34.3901 370.905 27.6691C382.825 21.5051 379.137 3.15411 365.977 3.15411C362.183 3.15411 360.402 3.73111 358.03 5.72711ZM421.354 6.90411C415.872 12.4941 404.367 26.3571 396.271 37.1261C392.332 42.3671 388.071 47.9691 386.802 49.5771C385.534 51.1841 383.096 54.7841 381.385 57.5771C379.674 60.3691 375.789 66.7041 372.751 71.6541C361.053 90.7151 349.934 113.904 349.934 119.24C349.934 121.421 350.478 122.226 352.184 122.572C353.421 122.823 355.646 123.284 357.127 123.596C358.608 123.908 361.083 123.627 362.627 122.972C365.444 121.776 371.934 116.31 371.934 115.133C371.934 114.787 374.548 109.813 377.743 104.079C391.534 79.3311 417.23 42.8391 430.855 28.6541C439.687 19.4591 440.797 15.9041 436.837 9.49811C432.494 2.47011 426.659 1.49211 421.354 6.90411ZM218.232 20.4041C215.73 23.7051 214.154 33.9581 215.578 37.6681C215.932 38.5911 220.544 41.3371 225.828 43.7711C231.111 46.2061 236.109 48.5651 236.934 49.0161C252.664 57.5981 257.52 61.3571 264.887 70.6541C270.351 77.5501 282.129 94.6981 284.346 98.9831C287.155 104.416 297.86 106.7 302.684 102.895C305.497 100.676 302.435 86.9961 296.507 75.2991C290.882 64.1981 276.594 47.7331 264.808 38.7701C248.629 26.4661 221.688 15.8431 218.232 20.4041ZM449.978 37.8231C443.33 43.7631 445.57 54.7201 454.096 57.9651C460.953 60.5741 468.934 54.0321 468.934 45.8021C468.934 36.7871 456.837 31.6951 449.978 37.8231ZM492.061 70.2321C483.051 72.0031 461.488 79.0321 446.934 84.9441C442.259 86.8431 436.388 89.2051 433.887 90.1941C430.039 91.7151 423.671 94.8811 408.067 103.029C406.619 103.785 402.633 106.147 399.209 108.279C395.784 110.41 392.522 112.154 391.959 112.154C391.395 112.154 390.934 112.544 390.934 113.021C390.934 113.498 389.054 115.132 386.757 116.652C384.46 118.173 379.334 122.631 375.366 126.561C366.493 135.348 364.815 139.608 368.121 144.956C370.173 148.277 370.413 148.376 375.063 147.825C377.711 147.511 381.354 146.228 383.156 144.972C396.301 135.819 399.673 133.512 401.434 132.463C433.754 113.21 459.975 102.374 492.934 94.6501C511.642 90.2661 514.934 88.4461 514.934 82.4871C514.934 72.0391 506.329 67.4291 492.061 70.2321ZM144.149 82.2311C134.357 88.6801 135.138 104.17 145.508 109.19C157.717 115.1 170.707 100.667 164.142 88.4841C160.074 80.9351 150.611 77.9761 144.149 82.2311ZM202.934 83.8631C198.784 85.3891 197.934 87.3081 197.934 95.1541C197.934 105.185 198.53 105.704 213.058 108.307C219.29 109.424 225.614 110.971 227.112 111.746C228.609 112.52 230.415 113.154 231.124 113.154C231.834 113.154 237.873 115.933 244.544 119.329C258.296 126.33 260.213 126.361 264.798 119.655C268.074 114.864 267.152 112.382 259.687 105.893C244.331 92.5441 212.708 80.2701 202.934 83.8631ZM504.149 112.004C500.496 113.043 495.207 118.887 494.498 122.665C492.941 130.966 503.464 139.517 510.659 135.796C520.435 130.741 520.867 117.354 511.401 112.839C507.603 111.029 507.583 111.026 504.149 112.004ZM304.46 137.886C303.374 138.162 299.855 140.135 296.638 142.271C274.799 156.777 272.733 159.431 272.105 173.782L271.702 183.009L250.124 204.228C229.98 224.037 214.461 237.575 205.661 243.013C203.611 244.28 201.934 245.7 201.934 246.168C201.934 246.636 201.109 247.281 200.102 247.601C199.094 247.921 195.606 249.804 192.352 251.786C181.663 258.296 175.286 261.618 145.689 276.091C137.58 280.057 128.805 284.761 126.189 286.545C123.574 288.33 120.601 290.1 119.583 290.479C113.913 292.591 93.2976 311.042 78.4336 327.31C70.7336 335.737 60.5726 346.687 55.8536 351.643C46.9666 360.976 37.3156 371.398 30.4186 379.109C28.2266 381.56 24.6336 385.415 22.4336 387.675C4.40657 406.2 0.91456 411.842 0.16456 423.654C-1.07644 443.224 4.36857 452.695 27.9336 471.956C30.4086 473.979 42.1846 485.273 54.1016 497.053C82.1216 524.75 86.7436 527.787 102.58 528.901C117.001 529.916 121.961 527.695 135.936 513.969C153.437 496.78 202.704 445.179 217.761 428.268C221.275 424.321 231.934 410.183 231.934 409.469C231.934 409.125 233.028 407.408 234.365 405.655C236.32 403.093 244.383 387.07 248.959 376.654C249.443 375.554 251.609 370.78 253.774 366.046C255.938 361.311 258.04 356.361 258.444 355.046C258.848 353.73 259.536 352.203 259.973 351.652C260.41 351.1 261.741 348.175 262.929 345.152C264.118 342.128 265.698 338.304 266.442 336.654C267.186 335.004 269.915 328.704 272.508 322.654C275.101 316.604 279.632 306.852 282.578 300.982C285.524 295.113 287.934 290.08 287.934 289.799C287.934 289.517 289.225 287.119 290.802 284.47C292.379 281.821 296.523 274.704 300.011 268.654C303.499 262.604 307.526 256.079 308.959 254.154C310.392 252.229 314.207 247.054 317.436 242.654C325.429 231.762 327.942 229.154 330.44 229.154C341.322 229.154 348.588 222.869 356.385 206.711C366.013 186.76 365.836 185.647 350.581 170.154C320.757 139.863 314.348 135.379 304.46 137.886ZM427.434 142.696C402.953 149.173 400.368 150.877 402.987 158.815C404.929 164.698 407.707 165.395 428.52 165.222C465.516 164.915 485.791 172.043 517.934 196.659C523.746 201.11 528.438 201.357 532.125 197.404C536.867 192.32 538.18 187.35 535.904 183.097C534.406 180.3 515.337 166.311 506.934 161.847C504.459 160.532 499.734 157.916 496.434 156.033C485.46 149.772 466.372 143.654 454.934 142.731C438.946 141.441 432.209 141.433 427.434 142.696ZM312.419 166.904C337.819 189.537 337.156 188.855 336.352 191.514C335.273 195.081 331.634 201.147 330.5 201.269C327.262 201.619 324.984 200.527 320.934 196.682C318.459 194.332 312.711 188.902 308.161 184.616C297.966 175.011 297.534 173.71 302.551 167.708C307.147 162.209 307.15 162.209 312.419 166.904ZM397.994 182.288C393.332 189.934 396.248 195.967 407.434 201.818C430.149 213.699 443.522 230.091 452.989 257.654C458.903 274.873 460.218 276.142 470.131 274.201C478.999 272.464 480.614 270.36 477.996 263.951C477.48 262.688 475.66 257.154 473.952 251.654C466.923 229.017 459.537 216.112 445.326 201.632C433.569 189.653 416.734 180.177 405.74 179.35C400.171 178.931 400.001 178.996 397.994 182.288ZM295.009 209.345C299.368 213.3 302.934 217.067 302.934 217.717C302.934 218.947 283.391 252.839 280.237 257.078C279.246 258.411 277.984 260.439 277.434 261.586C274.673 267.341 257.551 295.154 256.769 295.154C252.115 295.154 243.604 288.2 240.382 281.763C238.258 277.52 230.661 271.983 223.584 269.52C217.433 267.38 214.953 265.311 217.085 264.102C225.094 259.559 247.361 239.844 267.934 219.082C277.009 209.923 285.03 202.368 285.759 202.292C286.487 202.216 290.65 205.39 295.009 209.345ZM381.505 224.725C378.479 227.751 379.196 232.679 385.449 251.835C392.725 274.126 394.088 276.154 401.793 276.154C414.145 276.154 415.255 257.559 404.152 236.654C398.307 225.65 386.697 219.534 381.505 224.725ZM195.345 274.231C198.77 278.301 199.492 281.62 198.09 286.859C193.791 302.934 205.806 322.094 220.217 322.144C223.131 322.154 232.31 317.973 233.46 316.111C236.288 311.536 256.14 315.564 255.846 320.654C255.719 322.849 252.152 327.722 249.863 328.828C245.678 330.85 225.186 332.701 214.434 332.028C188.365 330.396 187.654 329.485 186.353 296.069C185.635 277.613 185.646 277.463 187.97 274.319C190.888 270.372 192.086 270.357 195.345 274.231ZM222.383 295.498C226.14 300.424 225.926 306.141 221.857 309.565C212.844 317.149 203.44 306.831 210.631 297.248C215.42 290.867 218.501 290.408 222.383 295.498ZM162.934 302.598C162.934 316.217 158.301 322.43 144.576 327.217C128.423 332.85 118.769 341.175 109.123 357.788C103.423 367.606 102.305 367.91 90.5996 362.82C80.9436 358.621 81.2796 359.14 85.1506 354.412C86.9566 352.206 89.9626 348.434 91.8316 346.028C105.959 327.846 134.404 305.415 153.855 297.117C162.008 293.639 162.934 294.198 162.934 302.598ZM454.149 307.806C452.343 308.703 448.855 311.672 446.399 314.404C442.045 319.246 441.934 319.538 441.934 326.109C441.934 332.474 442.13 333.049 445.482 336.501C448.738 339.853 449.494 340.154 454.666 340.154C460.081 340.154 460.481 339.968 464.887 335.397C473.511 326.449 474.327 314.599 466.669 309.5C462.043 306.42 458.032 305.877 454.149 307.806ZM83.7646 400.904C103.118 420.113 127.582 443.665 142.75 457.692C152.633 466.83 153.375 464.673 133.482 484.62C121.731 496.402 115.294 502.154 113.859 502.154C111.413 502.154 109.389 500.554 95.0356 487.274C89.3176 481.983 84.1306 477.204 83.5106 476.654C71.4946 465.999 51.0636 447.187 40.9916 437.504C35.1846 431.921 28.9716 426.144 27.1836 424.665C25.3956 423.186 23.9386 421.454 23.9456 420.815C23.9526 420.176 28.2046 415.154 33.3946 409.654C38.5846 404.154 46.7916 395.301 51.6326 389.982C56.4726 384.662 60.9796 380.274 61.6466 380.232C62.3136 380.189 72.2666 389.491 83.7646 400.904Z" fill="#FF6700"/>
</svg>
